<svg width="18" height="18" viewBox="0 0 18 18" fill="none" xmlns="http://www.w3.org/2000/svg">
<path d="M15.4688 7.87499V14.625C15.4688 14.998 15.3206 15.3556 15.0569 15.6194C14.7931 15.8831 14.4355 16.0312 14.0625 16.0312H3.9375C3.56454 16.0312 3.20685 15.8831 2.94313 15.6194C2.67941 15.3556 2.53125 14.998 2.53125 14.625V7.87499C2.53125 7.50203 2.67941 7.14435 2.94313 6.88062C3.20685 6.6169 3.56454 6.46874 3.9375 6.46874H5.625C5.84878 6.46874 6.06339 6.55764 6.22162 6.71587C6.37986 6.87411 6.46875 7.08872 6.46875 7.31249C6.46875 7.53627 6.37986 7.75088 6.22162 7.90912C6.06339 8.06735 5.84878 8.15624 5.625 8.15624H4.21875V14.3437H13.7812V8.15624H12.375C12.1512 8.15624 11.9366 8.06735 11.7784 7.90912C11.6201 7.75088 11.5312 7.53627 11.5312 7.31249C11.5312 7.08872 11.6201 6.87411 11.7784 6.71587C11.9366 6.55764 12.1512 6.46874 12.375 6.46874H14.0625C14.4355 6.46874 14.7931 6.6169 15.0569 6.88062C15.3206 7.14435 15.4688 7.50203 15.4688 7.87499ZM6.78445 5.09695L8.15625 3.72656V9.56249C8.15625 9.78627 8.24514 10.0009 8.40338 10.1591C8.56161 10.3173 8.77622 10.4062 9 10.4062C9.22378 10.4062 9.43839 10.3173 9.59662 10.1591C9.75485 10.0009 9.84375 9.78627 9.84375 9.56249V3.72656L11.2155 5.09906C11.294 5.17754 11.3872 5.2398 11.4898 5.28228C11.5923 5.32475 11.7022 5.34661 11.8132 5.34661C11.9242 5.34661 12.0341 5.32475 12.1367 5.28228C12.2392 5.2398 12.3324 5.17754 12.4109 5.09906C12.4893 5.02057 12.5516 4.9274 12.5941 4.82485C12.6366 4.7223 12.6584 4.61239 12.6584 4.5014C12.6584 4.3904 12.6366 4.2805 12.5941 4.17795C12.5516 4.07541 12.4893 3.98223 12.4109 3.90374L9.59836 1.09124C9.51997 1.01258 9.42683 0.950172 9.32427 0.907586C9.22171 0.865 9.11175 0.843079 9.0007 0.843079C8.88965 0.843079 8.7797 0.865 8.67714 0.907586C8.57458 0.950172 8.48143 1.01258 8.40305 1.09124L5.59055 3.90374C5.51206 3.98223 5.4498 4.07541 5.40733 4.17795C5.36485 4.2805 5.34299 4.3904 5.34299 4.5014C5.34299 4.72556 5.43204 4.94055 5.59055 5.09906C5.74906 5.25756 5.96404 5.34661 6.1882 5.34661C6.41237 5.34661 6.62735 5.25756 6.78586 5.09906L6.78445 5.09695Z" fill="white"/>
</svg>
