<svg width="17" height="17" viewBox="0 0 17 17" fill="currentColor" xmlns="http://www.w3.org/2000/svg">
<path d="M2.88673 3.56206C2.83294 3.60868 2.78973 3.66625 2.75998 3.73092C2.73023 3.7956 2.71464 3.86587 2.71423 3.93706V14.4371C2.71423 14.5697 2.76691 14.6968 2.86068 14.7906C2.95445 14.8844 3.08163 14.9371 3.21423 14.9371C3.34684 14.9371 3.47402 14.8844 3.56779 14.7906C3.66155 14.6968 3.71423 14.5697 3.71423 14.4371V11.6727C5.38861 10.3502 6.83111 11.0633 8.49236 11.8858C9.51736 12.3927 10.6211 12.9389 11.8049 12.9389C12.6755 12.9389 13.5886 12.6421 14.5436 11.8139C14.5974 11.7673 14.6406 11.7097 14.6704 11.6451C14.7001 11.5804 14.7157 11.5101 14.7161 11.4389V3.93706C14.7159 3.84108 14.688 3.74721 14.6359 3.66663C14.5838 3.58605 14.5096 3.52218 14.4221 3.48264C14.3347 3.4431 14.2377 3.42957 14.1427 3.44365C14.0478 3.45773 13.9589 3.49883 13.8867 3.56206C12.1367 5.07643 10.6542 4.34268 8.93611 3.49206C7.15611 2.60956 5.13798 1.61143 2.88673 3.56206ZM13.7142 11.2027C12.0399 12.5252 10.5974 11.8114 8.93611 10.9896C7.37361 10.2177 5.63548 9.35643 3.71423 10.4646V4.17393C5.38861 2.85143 6.83111 3.56456 8.49236 4.38643C10.0549 5.15831 11.7936 6.01956 13.7142 4.91143V11.2027Z" fill="white"/>
</svg>
