<svg width="18" height="18" viewBox="0 0 18 18" fill="none" xmlns="http://www.w3.org/2000/svg">
<path d="M16.0312 10.6875V14.625C16.0312 14.998 15.8831 15.3556 15.6194 15.6194C15.3556 15.8831 14.998 16.0312 14.625 16.0312H3.375C3.00204 16.0312 2.64435 15.8831 2.38063 15.6194C2.11691 15.3556 1.96875 14.998 1.96875 14.625V10.6875C1.96875 10.4637 2.05764 10.2491 2.21588 10.0909C2.37411 9.93265 2.58872 9.84375 2.8125 9.84375C3.03628 9.84375 3.25089 9.93265 3.40912 10.0909C3.56736 10.2491 3.65625 10.4637 3.65625 10.6875V14.3438H14.3438V10.6875C14.3438 10.4637 14.4326 10.2491 14.5909 10.0909C14.7491 9.93265 14.9637 9.84375 15.1875 9.84375C15.4113 9.84375 15.6259 9.93265 15.7841 10.0909C15.9424 10.2491 16.0312 10.4637 16.0312 10.6875ZM8.40305 11.2845C8.48143 11.3631 8.57458 11.4255 8.67714 11.4681C8.7797 11.5107 8.88965 11.5326 9.0007 11.5326C9.11175 11.5326 9.22171 11.5107 9.32427 11.4681C9.42683 11.4255 9.51997 11.3631 9.59836 11.2845L12.4109 8.47195C12.5694 8.31344 12.6584 8.09846 12.6584 7.8743C12.6584 7.65013 12.5694 7.43515 12.4109 7.27664C12.2524 7.11813 12.0374 7.02908 11.8132 7.02908C11.589 7.02908 11.3741 7.11813 11.2155 7.27664L9.84375 8.64844V2.8125C9.84375 2.58872 9.75485 2.37411 9.59662 2.21588C9.43839 2.05764 9.22378 1.96875 9 1.96875C8.77622 1.96875 8.56161 2.05764 8.40338 2.21588C8.24514 2.37411 8.15625 2.58872 8.15625 2.8125V8.64844L6.78445 7.27805C6.62594 7.11954 6.41096 7.03049 6.1868 7.03049C5.96263 7.03049 5.74765 7.11954 5.58914 7.27805C5.43063 7.43656 5.34158 7.65154 5.34158 7.8757C5.34158 8.09987 5.43063 8.31485 5.58914 8.47336L8.40305 11.2845Z" fill="white"/>
</svg>
