<svg width="17" height="17" viewBox="0 0 17 17" fill="currentColor" xmlns="http://www.w3.org/2000/svg">
<path d="M15.2719 9.50946C15.2077 9.44519 15.1273 9.39959 15.0392 9.37757C14.9511 9.35555 14.8587 9.35793 14.7719 9.38446C13.8185 9.67268 12.8047 9.69685 11.8387 9.45438C10.8727 9.21191 9.99049 8.7119 9.2862 8.00761C8.58192 7.30333 8.0819 6.42117 7.83944 5.45512C7.59697 4.48908 7.62114 3.47535 7.90936 2.52196C7.93611 2.43508 7.93867 2.34256 7.91677 2.25434C7.89487 2.16612 7.84933 2.08554 7.78505 2.02126C7.72078 1.95699 7.6402 1.91145 7.55198 1.88955C7.46376 1.86765 7.37123 1.87021 7.28436 1.89696C5.96625 2.30074 4.80907 3.10995 3.97749 4.20946C3.25024 5.17499 2.80664 6.32419 2.69653 7.52794C2.58641 8.73169 2.81413 9.9423 3.35412 11.0238C3.8941 12.1052 4.72495 13.0147 5.75332 13.65C6.78169 14.2853 7.96683 14.6212 9.17561 14.6201C10.5858 14.6244 11.9585 14.166 13.0831 13.3151C14.1826 12.4835 14.9918 11.3263 15.3956 10.0082C15.4221 9.92166 15.4245 9.82955 15.4027 9.74172C15.3809 9.65388 15.3357 9.57361 15.2719 9.50946ZM12.4819 12.5163C11.4228 13.314 10.1113 13.7023 8.7887 13.6097C7.46611 13.517 6.22149 12.9498 5.28395 12.0123C4.34641 11.0749 3.77906 9.83029 3.68634 8.5077C3.59363 7.18512 3.98178 5.87356 4.77936 4.81446C5.29899 4.12825 5.97078 3.57199 6.74186 3.18946C6.69793 3.49772 6.6758 3.8087 6.67561 4.12008C6.67743 5.84343 7.36283 7.49567 8.58143 8.71427C9.80002 9.93286 11.4523 10.6183 13.1756 10.6201C13.4876 10.62 13.7992 10.5978 14.1081 10.5538C13.7252 11.325 13.1685 11.9968 12.4819 12.5163Z" fill="black"/>
</svg>
