<svg width="16" height="16" viewBox="0 0 16 16" fill="currentColor" xmlns="http://www.w3.org/2000/svg">
<path d="M11.3537 10.6462C11.4002 10.6927 11.4371 10.7478 11.4623 10.8085C11.4874 10.8692 11.5004 10.9343 11.5004 11C11.5004 11.0657 11.4874 11.1308 11.4623 11.1915C11.4371 11.2522 11.4002 11.3073 11.3537 11.3537L8.35372 14.3537C8.30729 14.4002 8.25214 14.4371 8.19144 14.4623C8.13074 14.4874 8.06568 14.5004 7.99997 14.5004C7.93426 14.5004 7.8692 14.4874 7.8085 14.4623C7.7478 14.4371 7.69266 14.4002 7.64622 14.3537L4.64622 11.3537C4.5524 11.2599 4.49969 11.1327 4.49969 11C4.49969 10.8673 4.5524 10.7401 4.64622 10.6462C4.74004 10.5524 4.86729 10.4997 4.99997 10.4997C5.13265 10.4997 5.2599 10.5524 5.35372 10.6462L7.99997 13.2931L10.6462 10.6462C10.6927 10.5998 10.7478 10.5629 10.8085 10.5377C10.8692 10.5126 10.9343 10.4996 11 10.4996C11.0657 10.4996 11.1307 10.5126 11.1914 10.5377C11.2521 10.5629 11.3073 10.5998 11.3537 10.6462ZM5.35372 5.35375L7.99997 2.70687L10.6462 5.35375C10.74 5.44757 10.8673 5.50027 11 5.50027C11.1327 5.50027 11.2599 5.44757 11.3537 5.35375C11.4475 5.25993 11.5003 5.13268 11.5003 5C11.5003 4.86731 11.4475 4.74007 11.3537 4.64625L8.35372 1.64625C8.30729 1.59976 8.25214 1.56288 8.19144 1.53772C8.13074 1.51255 8.06568 1.4996 7.99997 1.4996C7.93426 1.4996 7.8692 1.51255 7.8085 1.53772C7.7478 1.56288 7.69266 1.59976 7.64622 1.64625L4.64622 4.64625C4.5524 4.74007 4.49969 4.86731 4.49969 5C4.49969 5.13268 4.5524 5.25993 4.64622 5.35375C4.74004 5.44757 4.86729 5.50027 4.99997 5.50027C5.13265 5.50027 5.2599 5.44757 5.35372 5.35375Z" fill="#333333"/>
</svg>
