<svg width="18" height="18" viewBox="0 0 18 18" fill="none" xmlns="http://www.w3.org/2000/svg">
<path d="M16.1817 4.95987L13.0402 1.8176C12.9096 1.68696 12.7545 1.58332 12.5839 1.51262C12.4132 1.44191 12.2303 1.40552 12.0456 1.40552C11.8609 1.40552 11.678 1.44191 11.5073 1.51262C11.3367 1.58332 11.1816 1.68696 11.051 1.8176L2.38079 10.4885C2.24973 10.6187 2.14582 10.7737 2.07509 10.9443C2.00436 11.115 1.96822 11.298 1.96876 11.4828V14.625C1.96876 14.998 2.11691 15.3557 2.38064 15.6194C2.64436 15.8831 3.00205 16.0313 3.37501 16.0313H6.51727C6.70201 16.0318 6.88501 15.9956 7.05567 15.9249C7.22633 15.8542 7.38126 15.7503 7.51149 15.6192L16.1817 6.9483C16.4454 6.68459 16.5935 6.32697 16.5935 5.95408C16.5935 5.5812 16.4454 5.22358 16.1817 4.95987ZM6.53907 12.6563L11.5313 7.66408L12.3047 8.43752L7.31251 13.4297L6.53907 12.6563ZM5.34376 11.461L4.57032 10.6875L9.56251 5.69533L10.3359 6.46877L5.34376 11.461ZM3.65626 12.1641L4.7468 13.2546L5.83594 14.3438H3.65626V12.1641ZM13.5 7.24221L10.7578 4.50002L12.0473 3.21049L14.7895 5.95268L13.5 7.24221Z" fill="#333333"/>
</svg>
