<svg width="17" height="16" viewBox="0 0 17 16" fill="currentColor" xmlns="http://www.w3.org/2000/svg">
<path d="M8.02884 5.00003C7.43337 5.00003 6.85127 5.17598 6.35616 5.50562C5.86104 5.83526 5.47515 6.3038 5.24727 6.85198C5.01939 7.40016 4.95977 8.00336 5.07594 8.5853C5.19211 9.16724 5.47886 9.70179 5.89992 10.1213C6.32098 10.5409 6.85744 10.8266 7.44147 10.9424C8.0255 11.0581 8.63086 10.9987 9.18101 10.7717C9.73115 10.5446 10.2014 10.1601 10.5322 9.66674C10.863 9.17339 11.0396 8.59337 11.0396 8.00003C11.0388 7.20463 10.7213 6.44205 10.1568 5.87962C9.5924 5.31719 8.82709 5.00086 8.02884 5.00003ZM8.02884 10C7.63186 10 7.2438 9.88273 6.91372 9.66297C6.58364 9.4432 6.32638 9.13085 6.17446 8.7654C6.02254 8.39994 5.98279 7.99781 6.06024 7.60985C6.13769 7.22189 6.32885 6.86552 6.60956 6.58581C6.89027 6.30611 7.24791 6.11563 7.63726 6.03846C8.02661 5.96129 8.43019 6.00089 8.79695 6.15227C9.16371 6.30364 9.47719 6.55999 9.69774 6.88889C9.91829 7.21779 10.036 7.60447 10.036 8.00003C10.036 8.53046 9.82454 9.03917 9.44812 9.41424C9.07171 9.78931 8.56118 10 8.02884 10ZM13.5486 8.13503C13.5511 8.04503 13.5511 7.95503 13.5486 7.86503L14.4844 6.70003C14.5335 6.63886 14.5674 6.56706 14.5836 6.49042C14.5997 6.41378 14.5975 6.33443 14.5772 6.25878C14.4238 5.68415 14.1943 5.13243 13.8948 4.61815C13.8556 4.55085 13.8011 4.4936 13.7358 4.45096C13.6705 4.40832 13.596 4.38146 13.5184 4.37253L12.0306 4.20753C11.9687 4.14253 11.906 4.08003 11.8425 4.02003L11.6668 2.53378C11.6578 2.45641 11.6308 2.38222 11.5878 2.31711C11.5449 2.252 11.4874 2.19779 11.4197 2.15878C10.9034 1.86087 10.3497 1.63242 9.7732 1.4794C9.69722 1.45928 9.61756 1.45722 9.54065 1.47339C9.46373 1.48957 9.3917 1.52353 9.33036 1.57253L8.16433 2.50003C8.074 2.50003 7.98368 2.50003 7.89336 2.50003L6.72418 1.5694C6.66279 1.52051 6.59074 1.48666 6.51382 1.4706C6.43691 1.45453 6.35728 1.45669 6.28135 1.4769C5.70476 1.63005 5.1511 1.85871 4.63484 2.1569C4.5673 2.19598 4.50985 2.25023 4.46705 2.31533C4.42426 2.38044 4.3973 2.45459 4.38834 2.5319L4.22275 4.0169C4.15751 4.07899 4.09479 4.14149 4.03458 4.2044L2.543 4.37503C2.46535 4.38403 2.39089 4.41098 2.32555 4.45373C2.26021 4.49649 2.2058 4.55386 2.16665 4.62128C1.86768 5.13576 1.63841 5.68743 1.48484 6.2619C1.46465 6.33761 1.46258 6.41698 1.47881 6.49362C1.49505 6.57027 1.52913 6.64204 1.5783 6.70315L2.50913 7.86503C2.50913 7.95503 2.50913 8.04503 2.50913 8.13503L1.57517 9.30003C1.5261 9.3612 1.49213 9.43299 1.47601 9.50964C1.45988 9.58628 1.46205 9.66562 1.48234 9.74128C1.63575 10.3159 1.86525 10.8676 2.16477 11.3819C2.20399 11.4492 2.25844 11.5065 2.32377 11.5491C2.38911 11.5917 2.46353 11.6186 2.54112 11.6275L4.02893 11.7925C4.09124 11.8575 4.15396 11.92 4.2171 11.98L4.39085 13.4663C4.39988 13.5436 4.42693 13.6178 4.46984 13.6829C4.51274 13.7481 4.57032 13.8023 4.63798 13.8413C5.1543 14.1392 5.70795 14.3676 6.28449 14.5207C6.36046 14.5408 6.44012 14.5428 6.51704 14.5267C6.59396 14.5105 6.66599 14.4765 6.72732 14.4275L7.89336 13.5C7.98368 13.5025 8.074 13.5025 8.16433 13.5L9.3335 14.4325C9.39489 14.4814 9.46694 14.5153 9.54386 14.5313C9.62078 14.5474 9.70041 14.5452 9.77633 14.525C10.353 14.3722 10.9067 14.1435 11.4228 13.845C11.4904 13.806 11.5478 13.7517 11.5906 13.6866C11.6334 13.6215 11.6604 13.5473 11.6693 13.47L11.8349 11.9875C11.9002 11.9259 11.9629 11.8634 12.0231 11.8L13.5147 11.625C13.5923 11.616 13.6668 11.5891 13.7321 11.5463C13.7975 11.5036 13.8519 11.4462 13.891 11.3788C14.19 10.8643 14.4193 10.3126 14.5728 9.73815C14.593 9.66245 14.5951 9.58308 14.5789 9.50643C14.5626 9.42979 14.5286 9.35802 14.4794 9.2969L13.5486 8.13503ZM12.5387 7.72878C12.5494 7.90946 12.5494 8.0906 12.5387 8.27128C12.5312 8.39498 12.5701 8.51703 12.6478 8.61378L13.5379 9.7219C13.4358 10.0453 13.305 10.3591 13.1471 10.6594L11.7296 10.8194C11.6061 10.8331 11.4921 10.8918 11.4097 10.9844C11.2889 11.1197 11.1603 11.2478 11.0245 11.3682C10.9317 11.4503 10.8727 11.5639 10.8589 11.6869L10.7015 13.0982C10.4001 13.2555 10.0853 13.3858 9.76065 13.4875L8.64793 12.6007C8.55889 12.5298 8.44828 12.4912 8.33431 12.4913H8.3042C8.12287 12.5019 7.94108 12.5019 7.75976 12.4913C7.63561 12.4838 7.51312 12.5226 7.41603 12.6L6.30079 13.4875C5.97622 13.3858 5.66136 13.2555 5.35993 13.0982L5.19936 11.6875C5.18566 11.5645 5.12666 11.4509 5.03377 11.3688C4.89798 11.2485 4.76938 11.1203 4.64864 10.985C4.56618 10.8925 4.4522 10.8337 4.32875 10.82L2.91244 10.6625C2.7545 10.3622 2.62372 10.0485 2.52167 9.72503L3.41173 8.61628C3.48944 8.51953 3.52834 8.39748 3.52087 8.27378C3.5102 8.0931 3.5102 7.91196 3.52087 7.73128C3.52834 7.60758 3.48944 7.48552 3.41173 7.38878L2.52167 6.27815C2.6238 5.95474 2.75457 5.641 2.91244 5.34065L4.32812 5.18065C4.45157 5.167 4.56556 5.10821 4.64802 5.01565C4.76875 4.88035 4.89735 4.75221 5.03314 4.6319C5.1264 4.54968 5.18564 4.43585 5.19936 4.31253L5.3568 2.9019C5.65819 2.74452 5.97305 2.61422 6.29766 2.51253L7.41038 3.3994C7.50747 3.47684 7.62997 3.5156 7.75411 3.50815C7.93543 3.49753 8.11723 3.49753 8.29855 3.50815C8.4227 3.5156 8.54519 3.47684 8.64228 3.3994L9.75689 2.51253C10.0815 2.61429 10.3963 2.7446 10.6977 2.9019L10.8583 4.31253C10.872 4.43554 10.931 4.54911 11.0239 4.63128C11.1597 4.75159 11.2883 4.87972 11.409 5.01503C11.4915 5.10758 11.6055 5.16637 11.7289 5.18003L13.1452 5.3369C13.3032 5.63722 13.434 5.95096 13.536 6.2744L12.646 7.38315C12.5675 7.48071 12.5286 7.60403 12.5368 7.72878H12.5387Z" fill="white"/>
</svg>
