<svg width="18" height="18" viewBox="0 0 18 18" fill="currentColor" xmlns="http://www.w3.org/2000/svg">
<path d="M17.1562 3.9375V7.3125C17.1562 7.53628 17.0673 7.75089 16.909 7.90913C16.7508 8.06736 16.5362 8.15625 16.3124 8.15625H12.9374C12.7136 8.15625 12.499 8.06736 12.3408 7.90913C12.1826 7.75089 12.0937 7.53628 12.0937 7.3125C12.0937 7.08873 12.1826 6.87412 12.3408 6.71588C12.499 6.55765 12.7136 6.46875 12.9374 6.46875H14.1398L12.8038 5.24672C12.7947 5.23829 12.7855 5.22985 12.7771 5.22071C12.1577 4.60165 11.3956 4.14431 10.5579 3.88895C9.72018 3.63358 8.83257 3.58801 7.97313 3.75624C7.11368 3.92447 6.30876 4.30135 5.62918 4.85372C4.94959 5.40608 4.41618 6.11701 4.07587 6.92393C3.73556 7.73086 3.59879 8.60906 3.67758 9.48126C3.75638 10.3535 4.04833 11.1929 4.52774 11.9258C5.00716 12.6587 5.65934 13.2625 6.42692 13.6841C7.19449 14.1058 8.05393 14.3323 8.92961 14.3438H8.99992C10.3639 14.347 11.6769 13.8254 12.6667 12.8869C12.8294 12.7331 13.0465 12.6503 13.2703 12.6566C13.4941 12.663 13.7062 12.7579 13.8599 12.9206C14.0137 13.0833 14.0965 13.3005 14.0902 13.5242C14.0838 13.748 13.9889 13.9601 13.8262 14.1138C12.5232 15.3488 10.7952 16.0353 8.99992 16.0313H8.90359C7.75261 16.015 6.62321 15.7165 5.61457 15.1618C4.60593 14.6071 3.74889 13.8133 3.11871 12.85C2.48853 11.8868 2.10449 10.7835 2.0003 9.63712C1.89611 8.49075 2.07496 7.33633 2.52115 6.27523C2.96735 5.21413 3.66723 4.2788 4.55935 3.55137C5.45146 2.82395 6.50853 2.32667 7.63773 2.10321C8.76693 1.87975 9.93372 1.93694 11.0357 2.26976C12.1376 2.60258 13.141 3.20085 13.9577 4.01204L15.4687 5.39438V3.9375C15.4687 3.71373 15.5576 3.49912 15.7158 3.34088C15.874 3.18265 16.0886 3.09375 16.3124 3.09375C16.5362 3.09375 16.7508 3.18265 16.909 3.34088C17.0673 3.49912 17.1562 3.71373 17.1562 3.9375Z" fill="white"/>
</svg>
